<svg width="46" height="43" viewBox="0 0 46 43" fill="none" xmlns="http://www.w3.org/2000/svg">
<path fill-rule="evenodd" clip-rule="evenodd" d="M10.112 37.248C9.856 36.6933 9.728 35.7973 9.728 34.56V5.248C9.728 3.968 9.856 3.02933 10.112 2.432C10.4107 1.792 10.9227 1.36533 11.648 1.152C12.416 0.895997 13.5893 0.767998 15.168 0.767998C15.296 0.767998 15.36 0.639998 15.36 0.383999C15.36 0.128 15.296 0 15.168 0L12.096 0.0639992C10.304 0.149331 8.81067 0.191998 7.616 0.191998C6.50667 0.191998 5.056 0.149331 3.264 0.0639992L0.128 0C0.0426667 0 0 0.128 0 0.383999C0 0.639998 0.0426667 0.767998 0.128 0.767998C1.74933 0.767998 2.92267 0.895997 3.648 1.152C4.416 1.36533 4.928 1.77066 5.184 2.368C5.44 2.96533 5.568 3.904 5.568 5.184V34.816C5.568 36.096 5.44 37.056 5.184 37.696C4.928 38.2933 4.416 38.6987 3.648 38.912C2.92267 39.1253 1.74933 39.232 0.128 39.232C0.0426667 39.232 0 39.36 0 39.616C0 39.872 0.0426667 40 0.128 40H24.4247C24.8003 40.2311 25.1894 40.4498 25.592 40.656C28.248 41.968 31.256 42.624 34.616 42.624C36.504 42.624 38.168 42.464 39.608 42.144C41.08 41.824 42.648 41.264 44.312 40.464C44.504 40.336 44.632 40.224 44.696 40.128C44.76 40.032 44.808 39.792 44.84 39.408L45.32 34.128C45.32 34.032 45.208 33.984 44.984 33.984C44.824 33.984 44.744 34.016 44.744 34.08C43.88 36.704 42.632 38.656 41 39.936C39.368 41.216 37.24 41.856 34.616 41.856C32.2518 41.856 30.0496 41.2373 28.0095 40H29.696C30.08 40 30.336 39.936 30.464 39.808C30.592 39.6373 30.656 39.3813 30.656 39.04C30.656 36.736 30.848 33.8133 31.232 30.272C31.232 30.144 31.104 30.08 30.848 30.08C30.6347 30.0373 30.528 30.08 30.528 30.208C30.0587 32.8533 29.0987 34.9227 27.648 36.416C27.0033 37.0797 26.2617 37.5958 25.4232 37.9646C24.3888 36.935 23.5011 35.7361 22.76 34.368C21.544 32.032 20.936 29.472 20.936 26.688C20.936 23.776 21.496 21.232 22.616 19.056C23.736 16.848 25.32 15.152 27.368 13.968C29.416 12.784 31.784 12.192 34.472 12.192C39.592 12.192 42.888 14.864 44.36 20.208C44.392 20.304 44.488 20.352 44.648 20.352C44.84 20.32 44.936 20.256 44.936 20.16L44.36 14.448C44.296 14.064 44.248 13.824 44.216 13.728C44.184 13.632 44.056 13.52 43.832 13.392C42.456 12.688 41.08 12.192 39.704 11.904C38.328 11.616 36.632 11.472 34.616 11.472C31.32 11.472 28.344 12.112 25.688 13.392C23.064 14.672 21 16.48 19.496 18.816C17.992 21.12 17.24 23.776 17.24 26.784C17.24 29.888 17.976 32.64 19.448 35.04C20.2883 36.4101 21.3163 37.6081 22.5321 38.634C22.3009 38.6487 22.0648 38.656 21.824 38.656H14.848C13.312 38.656 12.2027 38.5707 11.52 38.4C10.8373 38.1867 10.368 37.8027 10.112 37.248Z" fill="#4475F2"/>
</svg>
